# xmcd CD database file
#
# Track frame offsets:
#	150
#	19909
#	45332
#	73882
#	94301
#	113954
#	140587
#	164088
#
# Disc length: 2477 seconds
#
# Revision: 0
# Processed by: cddbd v1.5.2PL0 Copyright (c) Steve Scherf et al.
# Submitted via: CDex 1.51
#
DISCID=7409ab08
DTITLE=marco ballanti and organic unity  - certi momenti
DYEAR=2010
DGENRE=Jazz
TTITLE0=jobbing
TTITLE1=bean and blue
TTITLE2=morning light
TTITLE3=brasilian touch
TTITLE4=to bumper
TTITLE5=starlight
TTITLE6=relax on bossa
TTITLE7=three times
EXTD=YEAR: 2010
EXTT0=
EXTT1=
EXTT2=
EXTT3=
EXTT4=
EXTT5=
EXTT6=
EXTT7=
PLAYORDER=
